<svg xmlns="http://www.w3.org/2000/svg" width="28.391" height="39.5" viewBox="0 0 28.391 39.5"><defs><style>.a{fill:#c30078;}</style></defs><g transform="translate(-56.528)"><path class="a" d="M84.891,37.538l-.982-4.46a.855.855,0,0,0-.421-.589.837.837,0,0,0-.729-.056l-.141.056-.337.084c-.15.037-.323.079-.519.126s-.425.093-.687.14-.538.089-.827.126-.6.07-.939.1-.673.042-1.01.042a11.293,11.293,0,0,1-10.6-7.126H78.55a.907.907,0,0,0,.869-.73l.673-3.142a.912.912,0,0,0-.168-.757.877.877,0,0,0-.7-.337H66.347a25.237,25.237,0,0,1,0-2.946h13.69a.819.819,0,0,0,.9-.729l.673-3.2a.92.92,0,0,0-.9-1.066H67.581A11.083,11.083,0,0,1,71.79,8.136a11.507,11.507,0,0,1,6.34-1.8,2.5,2.5,0,0,1,.827.028,6.394,6.394,0,0,0,.814.07,4.7,4.7,0,0,1,.729.084l.632.1.491.1c.141.028.248.051.323.07l.112.028a.8.8,0,0,0,.673-.07.823.823,0,0,0,.393-.547L84.33,1.74a.931.931,0,0,0-.084-.673,1.066,1.066,0,0,0-.562-.421A22.373,22.373,0,0,0,78.242,0,18.661,18.661,0,0,0,67.006,3.591a18.277,18.277,0,0,0-6.831,9.482H57.426a.864.864,0,0,0-.9.9v3.2a.864.864,0,0,0,.9.9h1.88q-.085,1.347-.028,2.946H57.426a.91.91,0,0,0-.9.9v3.17a.909.909,0,0,0,.9.9h2.665a18.116,18.116,0,0,0,6.677,9.861A18.663,18.663,0,0,0,78.242,39.5c.356,0,.716-.009,1.08-.028s.706-.047,1.024-.084.631-.079.94-.126.589-.093.841-.141.491-.093.715-.14.426-.1.6-.155.327-.1.449-.125a1.381,1.381,0,0,0,.294-.1l.141-.028a.881.881,0,0,0,.477-.407A.823.823,0,0,0,84.891,37.538Z" transform="translate(0 0)"/></g></svg>